<?xml version="1.0" standalone="no"?>
<!DOCTYPE svg PUBLIC "-//W3C//DTD SVG 20010904//EN"
 "http://www.w3.org/TR/2001/REC-SVG-20010904/DTD/svg10.dtd">
<svg version="1.0" xmlns="http://www.w3.org/2000/svg"
 width="100.000000pt" height="100.000000pt" viewBox="0 0 100.000000 100.000000"
 preserveAspectRatio="xMidYMid meet">

<g transform="translate(0.000000,100.000000) scale(0.100000,-0.100000)"
fill="#000000" stroke="none">
<path d="M0 500 l0 -500 500 0 500 0 0 500 0 500 -500 0 -500 0 0 -500z m524
322 c3 -5 -1 -9 -9 -9 -8 0 -12 4 -9 9 3 4 7 8 9 8 2 0 6 -4 9 -8z m117 -12
c33 -18 21 -30 -16 -14 -31 13 -39 13 -66 -2 -23 -12 -30 -12 -27 -3 8 24 77
36 109 19z m-46 -32 c14 -6 25 -18 25 -26 0 -11 8 -13 30 -8 33 6 36 0 15 -27
-11 -16 -22 -18 -69 -12 -31 4 -59 12 -63 18 -4 6 10 8 42 4 57 -6 39 8 -22
18 -50 8 -54 17 -15 32 15 6 28 11 29 12 1 1 14 -4 28 -11z m-103 -13 c-2 -5
-8 -9 -13 -7 -5 1 -12 -5 -15 -13 -3 -8 -10 -12 -15 -9 -5 3 -9 -2 -9 -10 0
-9 -4 -16 -10 -16 -5 0 -10 11 -10 25 0 16 6 25 15 25 8 0 15 5 15 11 0 6 10
9 23 7 12 -2 20 -7 19 -13z m-115 -61 c-5 -47 9 -74 44 -86 8 -3 11 -9 6 -13
-4 -5 -20 4 -36 19 -25 24 -29 35 -27 77 0 27 5 49 10 49 5 0 6 -21 3 -46z
m133 11 c11 -13 10 -14 -4 -9 -9 3 -16 10 -16 15 0 13 6 11 20 -6z m110 -72
c0 -8 -9 -4 -21 8 -13 13 -18 27 -14 37 5 14 9 13 20 -8 8 -14 14 -31 15 -37z
m-175 17 c16 -16 35 -30 42 -30 7 0 13 -4 13 -10 0 -27 -89 15 -101 48 -12 32
11 28 46 -8z m218 8 c-3 -13 -11 -29 -16 -36 -8 -10 -7 -16 4 -23 10 -6 11 -9
1 -9 -18 0 -26 28 -12 45 6 8 9 18 6 24 -3 5 0 12 6 14 7 3 14 6 15 6 0 1 -1
-9 -4 -21z m-115 -7 c3 -9 -9 -11 -39 -9 -56 4 -62 23 -7 22 23 -1 44 -7 46
-13z m42 -26 c10 -12 10 -15 -3 -15 -8 0 -17 7 -21 15 -3 8 -2 15 3 15 5 0 14
-7 21 -15z m107 0 c0 -8 -4 -12 -9 -9 -5 3 -6 10 -3 15 9 13 12 11 12 -6z
m-17 -59 c14 -18 10 -59 -8 -62 -7 -1 -8 0 -2 3 18 9 11 50 -9 56 -10 2 -70 5
-132 6 -62 1 -115 4 -118 7 -2 2 54 4 126 4 102 0 133 -3 143 -14z m-36 -54
c2 -4 -4 -9 -15 -9 -11 -1 -17 2 -14 8 7 11 22 12 29 1z m-161 -9 c-13 -2 -33
-2 -45 0 -13 2 -3 4 22 4 25 0 35 -2 23 -4z m82 -3 c-3 -5 -14 -10 -23 -9 -14
0 -13 2 3 9 27 11 27 11 20 0z m117 -152 c2 -86 0 -150 -7 -160 -8 -14 -23
-18 -72 -18 -35 0 -63 4 -63 10 0 6 21 10 48 10 78 1 85 11 82 137 -1 59 -3
120 -5 136 -2 15 0 27 5 27 4 0 10 -64 12 -142z"/>
<path d="M560 764 c-10 -11 -9 -14 8 -14 25 0 37 16 18 23 -8 3 -20 -1 -26 -9z"/>
</g>
</svg>
